<?xml version="1.0" standalone="no"?>
<!DOCTYPE svg PUBLIC "-//W3C//DTD SVG 20010904//EN"
 "http://www.w3.org/TR/2001/REC-SVG-20010904/DTD/svg10.dtd">
<svg version="1.0" xmlns="http://www.w3.org/2000/svg"
 width="725.000000pt" height="702.000000pt" viewBox="0 0 725.000000 702.000000"
 preserveAspectRatio="xMidYMid meet">

<g transform="translate(0.000000,702.000000) scale(0.100000,-0.100000)"
fill="#000000" stroke="none">
<path d="M4540 6244 c-54 -69 -80 -119 -80 -155 0 -11 -16 -37 -35 -56 -28
-28 -30 -33 -12 -27 44 13 68 36 91 87 21 47 74 112 62 76 -3 -8 -14 -58 -26
-111 -18 -83 -27 -103 -60 -141 -40 -45 -60 -84 -60 -115 0 -11 7 -6 19 14 10
17 40 48 66 69 59 49 77 86 115 232 33 129 36 163 18 181 -24 24 -47 11 -98
-54z"/>
<path d="M3782 6218 c-7 -7 -12 -19 -12 -27 0 -9 -25 -29 -58 -45 -81 -42
-215 -180 -272 -280 -92 -164 -147 -340 -175 -558 -9 -68 -29 -219 -46 -337
-17 -117 -28 -215 -26 -218 14 -14 121 290 162 457 94 393 157 556 277 714 61
80 144 154 157 140 5 -5 14 -49 20 -97 11 -91 42 -167 84 -204 20 -18 20 -17
13 7 -30 98 -36 133 -36 200 l1 75 32 -40 c57 -71 108 -121 100 -100 -5 16
-48 109 -91 199 -3 5 28 7 72 3 57 -4 95 -14 144 -37 l67 -31 -35 36 c-56 59
-189 115 -272 115 -15 0 -37 9 -48 20 -23 23 -41 25 -58 8z"/>
<path d="M4382 5631 c-17 -48 -15 -62 13 -115 33 -62 32 -108 -5 -199 -57
-144 -80 -283 -66 -400 8 -63 16 -70 33 -29 195 482 197 491 174 579 -8 31
-24 52 -58 80 -25 21 -53 56 -63 77 l-17 40 -11 -33z"/>
<path d="M3728 5408 c-56 -86 -98 -210 -98 -290 0 -99 39 -173 170 -328 69
-82 130 -186 130 -222 0 -10 4 -18 9 -18 13 0 21 38 21 105 -1 77 -28 143
-112 272 -37 56 -71 111 -78 123 -21 39 -29 141 -22 263 4 64 4 117 1 117 -4
0 -13 -10 -21 -22z"/>
<path d="M2165 4611 c-177 -61 -314 -157 -428 -300 -51 -65 -70 -80 -136 -112
-57 -28 -106 -65 -197 -148 -142 -129 -190 -188 -237 -291 -22 -49 -48 -88
-75 -112 -60 -55 -85 -58 -190 -27 -55 17 -104 4 -231 -59 -91 -45 -98 -47
-180 -47 -88 0 -119 11 -228 83 -21 13 -23 12 -30 -4 -10 -27 43 -118 114
-195 35 -38 63 -71 63 -73 0 -2 -22 3 -50 12 -27 9 -53 13 -57 9 -10 -11 73
-93 150 -147 86 -61 176 -92 292 -99 51 -4 81 -9 70 -13 -11 -4 -53 -16 -92
-28 -40 -11 -73 -25 -73 -29 0 -11 36 -21 78 -21 46 0 40 -16 -15 -36 -27 -9
-52 -21 -58 -26 -17 -15 92 -8 171 12 192 48 346 161 424 310 22 44 44 80 47
80 11 0 -5 -155 -21 -197 -8 -24 -13 -43 -11 -43 3 0 25 39 50 88 36 68 44 79
40 52 -3 -19 -8 -123 -11 -230 -5 -164 -3 -222 15 -362 12 -92 21 -219 21
-282 0 -151 -36 -576 -55 -646 -23 -84 -19 -188 11 -297 l26 -95 -3 -366 c-2
-313 0 -374 14 -417 l15 -50 -5 100 c-4 74 0 132 15 225 22 132 37 266 48 415
4 71 1 111 -15 189 -27 128 -26 174 4 293 26 104 60 381 75 603 5 74 16 187
25 250 21 145 15 231 -29 415 -31 129 -33 147 -25 225 24 237 68 485 111 620
37 116 129 311 193 411 97 150 253 281 423 355 93 41 68 44 -43 5z"/>
<path d="M4340 4409 c0 -24 -12 -65 -29 -102 -17 -34 -33 -83 -37 -109 l-6
-48 -89 -47 c-49 -25 -89 -50 -89 -54 0 -28 182 -30 237 -2 59 29 70 55 83
181 13 128 11 148 -26 191 -34 41 -44 39 -44 -10z"/>
<path d="M4035 4311 c-17 -28 -23 -107 -10 -138 17 -40 33 -42 37 -5 3 28 11
30 57 16 21 -6 23 -5 16 12 -4 10 -11 37 -14 59 -4 23 -11 46 -15 53 -8 14
-62 16 -71 3z"/>
<path d="M4837 4278 c-8 -18 -17 -45 -20 -59 -18 -72 -86 -126 -214 -170 -35
-11 -63 -25 -63 -30 0 -6 30 -96 66 -202 111 -326 574 -1778 574 -1802 0 -13
-7 -26 -16 -29 -9 -3 -89 -6 -178 -6 l-162 0 -13 -36 c-17 -48 -58 -64 -164
-64 -58 0 -102 -6 -142 -20 -113 -39 -179 -15 -209 75 l-14 40 -238 0 -237 0
-28 -65 c-37 -85 -36 -67 2 61 56 192 128 369 237 584 36 72 46 101 46 143 1
47 -3 57 -27 78 -15 13 -36 24 -47 24 -12 0 -29 19 -48 53 -61 108 -125 139
-210 100 l-37 -17 55 -6 c48 -4 57 -9 77 -39 13 -18 31 -58 40 -88 11 -35 29
-65 48 -81 l31 -27 -71 -140 c-122 -241 -158 -384 -160 -625 l-1 -165 -114
-267 c-63 -147 -115 -266 -117 -265 -1 2 4 34 12 72 9 46 12 100 8 164 -4 84
-1 111 25 221 58 242 62 274 61 539 -1 135 -4 257 -8 271 -7 21 -11 13 -33
-55 -34 -104 -53 -200 -72 -355 -9 -69 -29 -181 -46 -250 -52 -218 -57 -276
-35 -383 16 -73 19 -124 18 -246 l-3 -153 -40 -90 c-106 -240 -227 -347 -505
-448 -117 -42 -147 -59 -171 -96 -22 -32 -8 -66 38 -91 28 -15 56 -18 173 -17
77 1 201 8 275 15 96 10 256 13 553 11 456 -3 492 1 503 45 4 14 2 33 -3 42
-16 26 -82 59 -173 87 -122 37 -212 88 -268 149 -52 56 -72 106 -72 177 0 108
226 860 275 912 l24 26 613 0 c536 0 616 -2 636 -15 23 -17 65 -136 120 -350
138 -528 186 -690 233 -791 34 -72 93 -142 156 -185 57 -40 179 -84 268 -97
125 -20 540 -34 645 -23 52 6 103 11 113 11 37 0 14 17 -55 39 -169 54 -442
205 -561 311 -115 102 -159 201 -387 860 -212 613 -607 1802 -780 2345 -61
193 -117 366 -124 385 -16 47 -41 50 -59 8z"/>
<path d="M4214 3904 c-4 -22 -9 -138 -10 -259 -1 -213 -2 -224 -33 -339 -18
-65 -30 -120 -28 -123 3 -2 28 27 56 64 117 156 134 301 67 566 -32 127 -41
141 -52 91z"/>
<path d="M3795 3826 c11 -27 12 -41 3 -66 -16 -46 -4 -115 38 -221 22 -57 39
-122 43 -164 l8 -70 16 37 c26 58 21 140 -14 238 -17 47 -34 118 -39 158 -6
55 -13 79 -30 97 -33 35 -42 31 -25 -9z"/>
<path d="M3482 3239 c9 -5 108 -34 219 -64 202 -54 303 -94 385 -154 40 -28
42 -32 49 -97 15 -138 54 -228 148 -336 34 -39 103 -121 153 -182 50 -61 108
-127 129 -146 l37 -35 -27 60 c-46 106 -145 286 -200 364 -68 97 -93 160 -110
282 -7 53 -18 106 -24 117 -43 80 -228 168 -404 192 -103 13 -378 13 -355 -1z"/>
<path d="M1960 3215 c0 -38 28 -169 46 -210 l15 -36 -61 -65 c-90 -97 -145
-216 -159 -349 -12 -103 -1 -109 26 -14 13 45 37 115 54 155 32 77 127 235
144 241 6 2 19 -14 30 -34 11 -21 52 -69 90 -108 170 -169 399 -220 610 -134
29 11 28 12 -47 24 -316 52 -577 236 -712 503 -14 28 -29 52 -31 52 -3 0 -5
-11 -5 -25z"/>
<path d="M3445 3047 c-45 -11 -30 -13 147 -12 126 0 189 3 175 9 -36 15 -266
17 -322 3z"/>
<path d="M3220 2840 c0 -46 5 -60 44 -114 81 -113 96 -118 216 -63 90 42 245
92 315 103 28 4 45 9 39 11 -23 8 -205 -27 -297 -57 -100 -32 -146 -37 -178
-19 -11 6 -47 51 -80 101 l-59 90 0 -52z"/>
<path d="M4080 2623 c0 -5 14 -31 31 -58 17 -27 49 -86 70 -132 44 -92 126
-188 198 -235 59 -37 80 -38 55 0 -10 15 -60 95 -112 177 -52 83 -105 162
-119 176 -27 30 -123 85 -123 72z"/>
<path d="M2315 2303 c-170 -184 -236 -282 -254 -379 -12 -65 2 -112 63 -206
29 -46 68 -112 86 -148 47 -94 105 -193 173 -295 76 -113 107 -180 107 -230 0
-55 19 -32 27 33 7 64 -6 116 -63 251 -106 247 -170 381 -222 459 -47 73 -54
88 -49 119 8 48 54 144 131 271 81 136 145 262 132 262 -3 0 -61 -62 -131
-137z"/>
<path d="M2603 2167 c-108 -116 -193 -264 -209 -363 -7 -52 4 -95 78 -282 42
-106 76 -174 109 -220 44 -60 49 -72 49 -120 0 -29 -7 -82 -16 -117 -15 -59
-15 -70 1 -140 19 -87 13 -135 -16 -135 -22 0 -95 35 -122 58 -9 8 -20 13 -23
9 -10 -10 94 -107 131 -122 80 -34 128 37 126 183 0 59 5 100 19 142 28 82 35
159 20 206 -7 22 -32 66 -55 99 -23 33 -75 134 -116 225 -64 144 -74 172 -73
220 2 63 44 180 118 328 25 50 44 92 42 92 -2 0 -30 -29 -63 -63z"/>
<path d="M4371 2114 c-37 -47 -40 -138 -6 -190 19 -29 64 -32 121 -7 24 10 80
19 148 22 135 7 140 12 105 102 -13 34 -35 70 -49 80 -24 17 -28 17 -83 2 -54
-15 -63 -15 -130 0 -89 21 -82 22 -106 -9z"/>
<path d="M1659 1985 c-38 -80 -47 -147 -29 -221 13 -54 13 -54 -19 -99 -83
-116 -135 -297 -129 -454 1 -48 -1 -142 -6 -211 l-8 -125 37 -69 c34 -65 36
-72 30 -131 -8 -73 3 -117 47 -188 17 -26 29 -49 27 -51 -2 -1 -23 -8 -45 -14
-23 -7 -61 -30 -85 -52 l-44 -40 50 22 c29 12 80 23 123 26 63 4 76 8 88 28
13 19 14 27 2 47 -7 13 -23 42 -34 63 -31 57 -36 103 -19 160 18 59 12 103
-22 163 -24 42 -25 48 -18 140 5 53 9 170 10 261 3 184 13 235 70 355 41 84
45 141 15 198 -22 41 -27 132 -9 206 15 67 3 61 -32 -14z"/>
<path d="M2380 765 c-71 -76 1 -281 106 -301 56 -10 110 11 143 56 26 36 58
127 48 137 -3 2 -18 -10 -35 -27 -24 -24 -39 -30 -71 -30 -52 0 -73 21 -118
116 -18 41 -37 74 -42 74 -4 0 -18 -11 -31 -25z"/>
<path d="M1600 299 c-57 -25 -100 -38 -130 -38 -69 -1 -90 -34 -52 -82 19 -22
19 -22 78 -6 32 9 96 21 142 28 92 13 108 26 97 82 -8 37 -23 57 -39 56 -6 -1
-49 -18 -96 -40z"/>
</g>
</svg>
