<?xml version="1.0" standalone="no"?>
<!DOCTYPE svg PUBLIC "-//W3C//DTD SVG 20010904//EN"
 "http://www.w3.org/TR/2001/REC-SVG-20010904/DTD/svg10.dtd">
<svg version="1.0" xmlns="http://www.w3.org/2000/svg"
 width="908.000000pt" height="481.000000pt" viewBox="0 0 908.000000 481.000000"
 preserveAspectRatio="xMidYMid meet">

<g transform="translate(0.000000,481.000000) scale(0.100000,-0.100000)"
fill="#000000" stroke="none">
<path d="M5495 4129 c-129 -18 -305 -87 -415 -162 -67 -46 -157 -134 -205
-202 -99 -139 -139 -264 -138 -430 0 -139 20 -222 80 -345 40 -81 61 -109 142
-190 146 -144 308 -223 516 -251 148 -19 381 4 530 54 68 22 71 25 97 77 34
67 71 207 63 238 -4 16 -13 22 -34 22 -25 0 -35 -9 -67 -62 -102 -168 -257
-258 -444 -258 -284 0 -531 224 -616 558 -28 111 -32 280 -9 377 56 238 248
438 471 491 83 19 261 14 339 -10 131 -41 195 -106 245 -253 27 -82 48 -105
78 -87 23 15 26 65 12 203 -14 137 -20 155 -57 169 -146 58 -414 86 -588 61z"/>
<path d="M2862 4112 c-28 -4 -39 -27 -23 -46 7 -8 35 -20 64 -26 82 -20 105
-35 117 -80 7 -26 10 -236 8 -637 -3 -560 -4 -600 -21 -625 -18 -26 -55 -43
-144 -67 -47 -13 -60 -26 -44 -45 9 -10 77 -13 319 -14 169 0 315 2 325 5 9 2
17 13 17 23 0 14 -11 22 -42 30 -118 30 -167 61 -197 122 -20 42 -21 60 -21
296 l0 252 458 -2 457 -3 3 -260 c2 -253 2 -261 -20 -305 -26 -49 -81 -84
-154 -95 -49 -7 -72 -28 -55 -49 15 -18 606 -20 620 -2 17 20 -4 36 -73 55
-42 12 -79 29 -95 45 l-26 26 0 630 0 630 26 26 c16 16 51 33 89 43 66 17 94
41 73 62 -13 13 -581 18 -602 5 -6 -4 -11 -15 -11 -25 0 -20 32 -36 91 -46 47
-9 93 -37 116 -72 16 -24 18 -54 18 -298 l0 -270 -449 -3 c-353 -2 -451 0
-458 10 -4 7 -8 125 -8 261 0 272 4 297 58 335 16 12 60 29 97 39 70 19 99 43
78 64 -8 8 -92 12 -290 13 -153 1 -288 0 -301 -2z"/>
<path d="M6382 4112 c-28 -4 -40 -29 -21 -46 8 -7 35 -20 60 -30 25 -9 59 -30
75 -47 l29 -30 6 -467 c6 -460 6 -468 31 -549 72 -236 242 -366 514 -392 224
-22 414 43 544 186 66 72 104 138 136 238 25 77 27 95 40 485 8 223 19 429 25
459 14 67 49 106 112 122 52 13 80 37 67 59 -7 11 -50 13 -240 11 -128 -1
-238 -5 -246 -8 -23 -9 -12 -37 21 -51 69 -30 81 -39 104 -85 32 -66 44 -247
38 -607 -5 -299 -10 -335 -68 -456 -41 -88 -107 -157 -186 -196 -59 -29 -76
-32 -177 -36 -170 -6 -272 26 -368 115 -63 60 -104 133 -129 231 -18 74 -19
106 -17 505 l3 425 31 39 c19 23 49 45 75 54 47 18 70 42 54 58 -9 8 -462 20
-513 13z"/>
<path d="M1752 3060 c-12 -16 -22 -36 -22 -44 0 -8 -7 -22 -16 -30 -8 -9 -11
-16 -6 -16 6 0 20 12 32 28 l21 27 -5 -33 c-3 -19 -15 -45 -26 -59 -32 -41
-23 -47 14 -10 22 22 37 51 46 85 19 81 1 106 -38 52z"/>
<path d="M1450 3043 c-8 -7 -32 -28 -54 -45 -81 -68 -118 -158 -146 -362 -11
-77 -20 -145 -19 -150 1 -24 43 96 71 204 16 63 43 142 59 175 26 56 81 125
99 125 4 0 10 -19 13 -41 3 -23 12 -48 20 -56 13 -13 14 -9 10 33 l-6 49 28
-25 27 -25 -16 39 c-9 21 -16 41 -16 44 0 5 55 -3 85 -13 16 -6 15 -3 -5 14
-14 11 -41 23 -60 26 -19 4 -44 10 -55 14 -12 5 -26 2 -35 -6z"/>
<path d="M1690 2818 c0 -6 5 -26 11 -43 10 -27 8 -42 -10 -95 -21 -64 -28
-150 -13 -150 11 0 82 179 82 206 0 11 -12 37 -27 57 -29 37 -43 46 -43 25z"/>
<path d="M1421 2701 c-32 -75 -25 -117 32 -189 24 -31 52 -70 61 -87 l17 -30
-4 51 c-3 37 -13 63 -38 100 -30 43 -35 58 -39 129 l-5 80 -24 -54z"/>
<path d="M777 2404 c-26 -14 -74 -52 -107 -84 -32 -33 -64 -60 -70 -60 -20 0
-141 -123 -162 -165 -29 -56 -45 -65 -99 -59 -35 5 -55 1 -89 -16 -51 -26 -96
-28 -138 -6 -17 9 -33 16 -36 16 -11 0 16 -55 36 -77 21 -22 21 -23 2 -23 -36
-1 61 -77 117 -91 47 -12 49 -14 27 -26 -21 -11 -21 -12 -4 -13 20 0 20 0 0
-15 -18 -14 -18 -14 7 -15 72 -1 172 60 210 128 l20 37 -5 -45 c-4 -39 -3 -42
7 -23 10 18 13 1 16 -100 7 -218 4 -385 -9 -460 -9 -54 -9 -83 -1 -112 6 -22
11 -109 11 -194 0 -85 2 -152 4 -150 3 2 12 66 22 141 13 110 15 149 6 193 -9
44 -9 69 3 118 7 34 16 98 20 142 3 44 11 119 17 166 9 72 8 98 -7 166 -15 68
-16 93 -6 165 16 118 36 191 75 273 42 87 93 147 160 185 62 36 40 39 -27 4z"/>
<path d="M1680 2347 c0 -8 -7 -28 -15 -43 -8 -16 -15 -36 -15 -45 0 -8 -17
-23 -37 -33 -38 -18 -38 -18 -14 -28 34 -12 78 -1 96 25 20 28 20 111 0 127
-12 10 -15 10 -15 -3z"/>
<path d="M1557 2303 c-11 -10 -8 -51 3 -58 6 -3 10 -1 10 4 0 6 6 11 14 11 9
0 12 8 8 25 -4 24 -21 33 -35 18z"/>
<path d="M1864 2273 c-16 -33 -52 -61 -97 -76 -5 -1 48 -179 117 -394 69 -216
126 -395 126 -398 0 -3 -31 -5 -70 -5 -59 0 -71 -3 -80 -20 -8 -14 -21 -20
-47 -20 -19 0 -53 -5 -74 -12 -34 -10 -42 -9 -59 7 -11 10 -20 24 -20 32 0 10
-22 13 -95 13 -66 0 -95 -4 -95 -12 0 -6 -2 -9 -5 -6 -8 8 21 91 66 187 43 92
49 136 21 145 -10 3 -25 19 -35 35 -18 31 -42 42 -72 31 -18 -6 -17 -7 5 -13
17 -4 32 -21 47 -54 l21 -47 -20 -40 c-40 -79 -60 -151 -63 -234 -3 -69 -10
-99 -42 -175 l-38 -92 -3 49 c-2 26 6 88 17 136 22 92 30 307 12 295 -10 -5
-18 -43 -61 -266 -18 -94 -20 -123 -11 -155 39 -139 -29 -281 -161 -338 -97
-41 -113 -50 -116 -68 -2 -9 5 -21 15 -26 22 -12 565 -3 585 9 24 15 -6 43
-65 62 -76 24 -127 72 -127 119 0 62 89 355 113 370 6 4 116 8 244 8 189 0
234 -3 246 -14 8 -8 24 -52 36 -98 97 -368 111 -399 201 -434 59 -24 256 -41
330 -29 l42 7 -74 32 c-77 33 -154 82 -189 119 -42 44 -74 130 -283 758 -118
352 -216 643 -219 645 -3 3 -13 -12 -23 -33z"/>
<path d="M6738 2293 c-10 -3 -18 -6 -18 -8 0 -34 -37 -178 -61 -237 -18 -42
-29 -84 -25 -93 11 -31 48 -12 96 50 71 92 93 100 287 100 195 0 192 2 204
-112 11 -107 11 -1009 -1 -1058 -6 -26 -21 -50 -42 -68 -32 -26 -49 -33 -146
-57 -41 -11 -63 -33 -47 -48 3 -4 153 -7 331 -8 252 -1 326 2 335 12 14 17
-20 38 -87 53 -65 16 -109 43 -134 83 -19 32 -20 52 -20 573 0 341 4 554 10
577 15 54 49 61 251 56 217 -6 255 -22 274 -118 4 -19 14 -46 22 -59 l16 -25
18 23 c12 15 19 40 19 70 1 25 7 73 15 106 20 81 19 144 -1 152 -8 3 -29 -4
-45 -16 -73 -54 -79 -55 -575 -59 -298 -2 -483 0 -520 7 -59 11 -65 15 -119
83 -12 15 -27 23 -37 21z"/>
<path d="M8497 2214 c-199 -48 -315 -201 -305 -403 7 -147 58 -208 330 -388
103 -68 201 -140 218 -161 56 -67 77 -206 46 -295 -44 -122 -183 -193 -312
-158 -101 27 -194 128 -231 250 -21 69 -29 81 -58 81 -40 0 -45 -18 -35 -136
10 -130 18 -154 62 -188 150 -114 408 -124 581 -23 64 38 142 127 168 195 19
47 23 77 23 167 0 95 -3 116 -23 157 -48 98 -113 156 -328 292 -245 155 -299
234 -261 384 16 64 86 134 150 150 152 38 250 -14 332 -176 35 -70 49 -82 91
-82 34 0 38 26 20 115 -26 126 -45 168 -85 187 -96 47 -264 61 -383 32z"/>
<path d="M2839 2198 c-45 -17 -3 -52 82 -69 67 -13 96 -36 104 -81 3 -18 5
-282 3 -587 l-3 -553 -38 -33 c-24 -21 -62 -39 -103 -51 -70 -19 -95 -37 -76
-56 9 -9 167 -13 572 -15 545 -3 560 -3 570 16 5 11 10 32 10 48 0 16 13 82
29 148 30 121 29 155 -4 155 -8 0 -32 -35 -55 -79 -43 -86 -91 -140 -155 -175
-36 -19 -58 -21 -245 -24 -234 -4 -271 2 -300 51 -19 31 -20 55 -20 595 l0
563 23 23 c21 20 50 30 195 66 45 11 63 33 44 52 -13 13 -600 18 -633 6z"/>
<path d="M4129 2198 c-45 -17 -2 -52 84 -69 32 -7 68 -20 80 -30 l22 -17 3
-559 c2 -307 0 -572 -3 -589 -8 -48 -50 -82 -126 -105 -83 -25 -109 -42 -92
-60 10 -10 140 -14 578 -16 311 -2 565 -1 565 1 0 22 35 197 51 253 15 55 17
77 9 93 -6 11 -14 20 -19 20 -13 0 -36 -32 -64 -90 -37 -77 -76 -121 -138
-155 l-54 -30 -205 -3 c-240 -4 -275 3 -303 58 -16 32 -17 77 -15 598 l3 564
22 18 c20 16 52 26 191 60 45 11 63 33 44 52 -13 13 -600 18 -633 6z"/>
<path d="M5439 2198 c-44 -17 -4 -51 80 -69 32 -7 65 -22 85 -39 l31 -28 3
-577 2 -577 -33 -33 c-22 -22 -53 -39 -93 -50 -88 -24 -106 -33 -102 -52 3
-15 45 -17 508 -19 343 -2 508 0 517 8 16 13 70 180 78 244 6 39 4 53 -8 63
-20 16 -31 4 -98 -101 -72 -113 -95 -122 -315 -126 -196 -4 -232 4 -256 61
-19 45 -19 530 0 549 17 17 241 24 292 9 38 -11 48 -25 78 -106 15 -42 22 -50
42 -50 l25 0 1 187 c1 140 -1 190 -11 198 -22 18 -41 0 -66 -63 -16 -41 -32
-66 -49 -74 -16 -8 -72 -13 -162 -13 -134 0 -138 1 -153 24 -14 21 -16 60 -13
271 3 246 3 247 27 266 21 17 41 19 218 19 210 0 231 -4 272 -56 11 -14 27
-50 36 -79 8 -30 19 -56 24 -60 13 -8 39 4 45 22 8 20 -24 219 -38 239 -11 14
-62 16 -480 17 -257 1 -476 -1 -487 -5z"/>
<path d="M1627 2117 c-3 -24 -4 -60 0 -80 5 -32 1 -60 -23 -152 -10 -39 45 33
57 75 10 31 9 55 0 108 -16 90 -27 105 -34 49z"/>
<path d="M1463 2093 c-1 -20 7 -58 18 -85 10 -27 19 -59 20 -71 l0 -22 11 23
c9 18 8 35 -5 76 -9 29 -17 62 -17 73 0 11 -6 25 -12 31 -10 8 -13 2 -15 -25z"/>
<path d="M1350 1887 c3 -2 41 -15 85 -26 111 -31 165 -63 165 -100 0 -48 25
-92 100 -178 39 -46 73 -83 76 -83 3 0 -14 35 -37 78 -23 42 -52 97 -65 121
-13 25 -24 59 -24 76 0 65 -78 107 -210 113 -52 2 -93 2 -90 -1z"/>
<path d="M750 1862 c0 -11 4 -33 10 -47 9 -22 6 -32 -21 -64 -30 -38 -59 -115
-58 -155 0 -12 10 6 23 40 12 33 32 77 45 97 l22 36 36 -40 c64 -70 140 -98
218 -78 l47 12 -74 22 c-92 26 -160 73 -210 145 -28 40 -38 48 -38 32z"/>
<path d="M1358 1813 c18 -2 45 -2 60 0 15 2 0 4 -33 4 -33 0 -45 -2 -27 -4z"/>
<path d="M1240 1731 c0 -28 39 -81 59 -81 22 0 140 49 120 50 -9 0 -36 -7 -59
-15 -23 -8 -46 -15 -51 -15 -5 0 -22 19 -39 42 -25 34 -30 37 -30 19z"/>
<path d="M1448 1703 c7 -3 16 -2 19 1 4 3 -2 6 -13 5 -11 0 -14 -3 -6 -6z"/>
<path d="M1580 1646 c0 -8 41 -83 66 -121 17 -26 63 -60 71 -52 8 8 -90 149
-114 165 -13 8 -23 11 -23 8z"/>
<path d="M872 1506 c-33 -36 -67 -84 -77 -109 l-17 -45 52 -94 c29 -51 68
-117 86 -146 19 -29 34 -59 34 -67 0 -8 5 -15 10 -15 27 0 3 77 -70 226 -28
55 -50 107 -50 114 0 7 23 55 51 106 28 52 48 94 46 94 -3 0 -32 -29 -65 -64z"/>
<path d="M978 1443 c-49 -67 -58 -87 -58 -126 0 -36 41 -147 70 -187 14 -20
18 -42 16 -107 -1 -45 -5 -85 -9 -89 -3 -4 -18 1 -31 10 -22 14 -25 14 -19 1
3 -9 19 -23 35 -31 41 -21 57 -5 62 62 3 27 8 70 11 96 6 38 4 52 -13 75 -11
15 -34 60 -51 98 -36 79 -36 98 4 184 14 30 24 56 21 58 -2 2 -19 -18 -38 -44z"/>
<path d="M1690 1446 c-15 -15 -12 -62 5 -76 11 -9 22 -9 46 -1 18 6 46 11 64
11 17 0 34 3 38 6 6 7 -12 64 -21 64 -70 5 -125 3 -132 -4z"/>
<path d="M624 1384 c-9 -20 -13 -48 -9 -61 4 -16 -3 -43 -21 -80 -23 -45 -29
-75 -34 -162 -5 -78 -3 -115 7 -140 7 -18 13 -47 13 -63 0 -16 7 -42 15 -58
14 -27 13 -29 -4 -35 -11 -3 -24 -12 -30 -19 -9 -10 -3 -11 34 -2 56 15 60 19
44 48 -15 26 -20 80 -22 253 -1 104 2 127 21 172 18 42 20 56 11 82 -6 17 -9
47 -7 66 5 44 1 44 -18 -1z"/>
<path d="M904 906 c-12 -48 22 -106 62 -106 23 0 64 42 64 67 0 11 -4 11 -22
-1 -28 -18 -51 -4 -67 37 -13 34 -29 35 -37 3z"/>
<path d="M577 731 c-32 -11 -46 -21 -45 -31 4 -17 3 -17 76 -6 46 8 52 11 52
32 0 28 -12 29 -83 5z"/>
</g>
</svg>
